<?xml version="1.0" encoding="utf-8"?>
<!-- Generator: Adobe Illustrator 16.0.0, SVG Export Plug-In . SVG Version: 6.00 Build 0)  -->
<!DOCTYPE svg PUBLIC "-//W3C//DTD SVG 1.1//EN" "http://www.w3.org/Graphics/SVG/1.1/DTD/svg11.dtd">
<svg version="1.1" id="Layer_1" xmlns="http://www.w3.org/2000/svg" xmlns:xlink="http://www.w3.org/1999/xlink" x="0px" y="0px"
	 width="512px" height="512px" viewBox="0 0 512 512" enable-background="new 0 0 512 512" xml:space="preserve">
<path id="tools-7-icon" fill="#FFFFFF" d="M388.965,150.974c-9.49,0-17.188-7.694-17.188-17.188c0-9.491,7.695-17.186,17.188-17.186
	c9.49,0,17.188,7.694,17.188,17.186C406.152,143.279,398.455,150.974,388.965,150.974z M300.802,204.326l7.201-7.201l-13.015-13.017
	l7.82-7.82l13.017,13.015l7.2-7.201l-13.014-13.017l7.566-7.565l12.973,12.973l7.201-7.201l-12.973-12.975l7.822-7.82l12.973,12.973
	l7.201-7.201l-12.973-12.975l49.588-49.586l43.799,43.799L331.575,235.123l14.403,14.402L462,133.506l-72.607-72.608
	L273.372,176.919L300.802,204.326z M223.103,343.596l-78.7,78.699l-43.8-43.799l11.562-11.561l13.024,13.023l7.201-7.201
	l-13.023-13.025l7.873-7.873l13.015,13.014l7.201-7.201l-13.013-13.015l7.82-7.821l13.015,13.014l7.201-7.2l-13.013-13.016
	l7.566-7.566l12.971,12.971l7.202-7.201l-12.971-12.971l7.821-7.822l12.971,12.971l7.202-7.2l-27.33-27.422l-93.104,93.104
	l72.608,72.606l93.104-93.104L223.103,343.596z M118.978,61.918L50,130.894l301.857,301.857l84.926,17.432l-15.948-86.406
	L118.978,61.918z M371.162,408.7c-2.762,2.758-7.232,2.757-9.991,0L87.099,134.626c-2.758-2.758-2.758-7.229,0-9.988
	c2.761-2.761,7.232-2.761,9.991-0.002L371.16,398.71C373.92,401.469,373.92,405.941,371.162,408.7z M396.819,373.287
	c2.759,2.759,2.759,7.231,0,9.99c-2.759,2.76-7.231,2.76-9.991,0l-274.07-274.072c-2.759-2.758-2.759-7.23,0-9.989
	c2.76-2.76,7.231-2.76,9.99,0L396.819,373.287z"/>
</svg>
