<?xml version="1.0" encoding="utf-8"?>
<!-- Generator: Adobe Illustrator 16.0.0, SVG Export Plug-In . SVG Version: 6.00 Build 0)  -->
<!DOCTYPE svg PUBLIC "-//W3C//DTD SVG 1.1//EN" "http://www.w3.org/Graphics/SVG/1.1/DTD/svg11.dtd">
<svg version="1.1" id="Layer_1" xmlns="http://www.w3.org/2000/svg" xmlns:xlink="http://www.w3.org/1999/xlink" x="0px" y="0px"
	 width="512px" height="512px" viewBox="0 0 512 512" enable-background="new 0 0 512 512" xml:space="preserve">
<path id="crosshair-11-icon" fill="#15B880" d="M389.214,50.573c-44.528,0-80.626,36.097-80.626,80.626
	c0,45.218,39.203,75.043,80.626,116.513c41.423-41.47,80.626-71.295,80.626-116.513C469.84,86.67,433.743,50.573,389.214,50.573z
	 M398.784,187.105v-27.196h-19.142v27.196c-24.977-4.063-44.699-23.766-48.795-48.732h27.26v-19.14h-27.284
	c4.038-25.039,23.793-44.813,48.819-48.885v27.349h19.142V70.349c25.028,4.071,44.781,23.846,48.821,48.885h-27.286v19.14h27.261
	C443.485,163.34,423.761,183.042,398.784,187.105z M389.215,303.562c9.389,0,17-7.611,17-17c0-9.39-7.611-17-17-17s-17,7.61-17,17
	C372.215,295.951,379.826,303.562,389.215,303.562z M425.434,247.905c-0.438,0.424-0.883,0.855-1.323,1.281v132.385l-74.962,40.703
	v-90.214h-15.022v88.572l-81.807-52.91v-75.412H237.99v75.412l-79.801,52.91v-88.572h-15.027v90.214l-70.953-40.703V154.638
	l70.953,37.941v75.981h15.027v-75.292l79.801-41.385v78.928h14.328v-78.928l39.012,19.377c-4.959-11.707-7.924-24.307-8.168-38.217
	l-38.008-18.865l-93.811,48.742l-109.184-58.1v294.277l109.184,62.328l93.811-62.319l95.814,62.319l113.191-62.328V219.095
	C445.189,228.81,435.391,238.284,425.434,247.905z M362.889,308.55l-6.803-19.532c-3.686,1.284-7.539,1.936-11.451,1.936
	c-4.775,0-9.414-0.957-13.791-2.846l-8.197,18.989c6.979,3.015,14.377,4.541,21.988,4.541
	C350.867,311.638,357.01,310.599,362.889,308.55z M305.109,297.499l10.236-17.976l-29.138-16.592l-10.233,17.976L305.109,297.499z
	 M140.869,288.421l-7.152,19.406c6.16,2.271,12.615,3.424,19.186,3.424c7.27,0,14.363-1.398,21.078-4.156l-7.855-19.135
	c-4.211,1.729-8.66,2.604-13.223,2.604C148.781,290.564,144.732,289.846,140.869,288.421z M90.215,286.562c0,9.389,7.611,17,17,17
	c9.389,0,17-7.611,17-17c0-9.39-7.611-17-17-17C97.826,269.562,90.215,277.173,90.215,286.562z M228.273,252.372l7.037,19.451
	c3.807-1.378,7.793-2.076,11.846-2.078c4.631,0,9.141,0.903,13.406,2.687l7.969-19.091c-6.805-2.84-13.994-4.279-21.377-4.279
	C240.695,249.062,234.344,250.177,228.273,252.372z M191.785,297.152l28.762-17.233l-10.633-17.744l-28.762,17.236L191.785,297.152z
	"/>
</svg>
