<?xml version="1.0" encoding="utf-8"?>
<!-- Generator: Adobe Illustrator 16.0.0, SVG Export Plug-In . SVG Version: 6.00 Build 0)  -->
<!DOCTYPE svg PUBLIC "-//W3C//DTD SVG 1.1//EN" "http://www.w3.org/Graphics/SVG/1.1/DTD/svg11.dtd">
<svg version="1.1" id="Layer_1" xmlns="http://www.w3.org/2000/svg" xmlns:xlink="http://www.w3.org/1999/xlink" x="0px" y="0px"
	 width="512px" height="512px" viewBox="0 0 512 512" enable-background="new 0 0 512 512" xml:space="preserve">
<path id="briefcase-9-icon" fill="#C7C7C7" d="M201.875,141.084h-30v-30.562c0-11.748,9.523-21.271,21.271-21.271h125.708
	c11.748,0,21.271,9.523,21.271,21.271v30.563h-30v-17.063c0-3.739-3.031-6.771-6.771-6.771h-94.708
	c-3.739,0-6.771,3.031-6.771,6.771L201.875,141.084L201.875,141.084z M424,306.028v86.722H88v-86.722H58V422.75h396V306.028H424z
	 M50,161.084v125.443v0.5h150.833v-28H80v-67.943h352v67.943H309.167v28H462v-0.5V161.084H50z M283.167,246.862h-54.334v52.666
	h54.334V246.862z"/>
</svg>
