<?xml version="1.0" encoding="utf-8"?>
<!-- Generator: Adobe Illustrator 16.0.0, SVG Export Plug-In . SVG Version: 6.00 Build 0)  -->
<!DOCTYPE svg PUBLIC "-//W3C//DTD SVG 1.1//EN" "http://www.w3.org/Graphics/SVG/1.1/DTD/svg11.dtd">
<svg version="1.1" id="Layer_1" xmlns="http://www.w3.org/2000/svg" xmlns:xlink="http://www.w3.org/1999/xlink" x="0px" y="0px"
	 width="512px" height="512px" viewBox="0 0 512 512" enable-background="new 0 0 512 512" xml:space="preserve">
<path id="picture-multi-2-icon" fill="#C7C7C7" d="M375.333,197.791L340.857,84.682L49.999,173.333l66.92,219.556l41.014-12.501
	v46.932h304.068V197.791H375.333z M136.548,356.042L86.845,192.966l234.382-71.44l23.246,76.266h-186.54v151.732L136.548,356.042z
	 M432.479,397.797H187.452V227.312h245.026V397.797z M226.454,273.137c0-12.443,10.088-22.533,22.533-22.533
	c12.441,0,22.529,10.089,22.529,22.533c0,12.444-10.088,22.531-22.529,22.531C236.542,295.668,226.454,285.581,226.454,273.137z
	 M340.739,273.857l-37.351,53.067l-20.299-20.922l-57.275,65.076h179.031L340.739,273.857z"/>
</svg>
