<?xml version="1.0" encoding="utf-8"?>
<!-- Generator: Adobe Illustrator 16.0.0, SVG Export Plug-In . SVG Version: 6.00 Build 0)  -->
<!DOCTYPE svg PUBLIC "-//W3C//DTD SVG 1.1//EN" "http://www.w3.org/Graphics/SVG/1.1/DTD/svg11.dtd">
<svg version="1.1" id="Layer_1" xmlns="http://www.w3.org/2000/svg" xmlns:xlink="http://www.w3.org/1999/xlink" x="0px" y="0px"
	 width="512px" height="512px" viewBox="0 0 512 512" enable-background="new 0 0 512 512" xml:space="preserve">
<path id="checkbox-16-icon" fill="#D11C1C" d="M345.938,314.829l-57.848-57.841l57.842-57.847l-31.102-31.08l-57.832,57.841
	l-57.841-57.832l-31.095,31.075l57.85,57.847l-57.843,57.85l31.075,31.098l57.857-57.86l57.856,57.854L345.938,314.829z M256,111
	c38.73,0,75.145,15.083,102.529,42.47C385.916,180.857,401,217.27,401,256c0,38.73-15.083,75.144-42.471,102.53
	C331.143,385.916,294.73,401,256,401c-38.73,0-75.144-15.083-102.53-42.47C126.084,331.143,111,294.73,111,256
	c0-38.73,15.083-75.144,42.47-102.53C180.857,126.084,217.27,111,256,111z M256,71C153.827,71,71,153.828,71,256s82.827,185,185,185
	c102.172,0,185-82.828,185-185S358.172,71,256,71z"/>
</svg>
