<?xml version="1.0" encoding="utf-8"?>
<!-- Generator: Adobe Illustrator 16.0.0, SVG Export Plug-In . SVG Version: 6.00 Build 0)  -->
<!DOCTYPE svg PUBLIC "-//W3C//DTD SVG 1.1//EN" "http://www.w3.org/Graphics/SVG/1.1/DTD/svg11.dtd">
<svg version="1.1" id="Layer_1" xmlns="http://www.w3.org/2000/svg" xmlns:xlink="http://www.w3.org/1999/xlink" x="0px" y="0px"
	 width="512px" height="512px" viewBox="0 0 512 512" enable-background="new 0 0 512 512" xml:space="preserve">
<path id="user-11-icon" fill="#15B880" d="M306.025,461.649H50.081c0-56.453-4.539-87.566,54.473-101.177
	c57.767-13.323,114.787-25.233,87.375-75.717C110.699,135.161,168.77,50.35,256.001,50.35c85.545,0,151.675,84.375,64.072,234.406
	c-21.278,36.442-44.048,67.771-44.048,101.285C276.025,415.265,287.436,441.87,306.025,461.649z M462,386.042
	c0,41.689-33.797,75.486-75.486,75.486s-75.486-33.797-75.486-75.486s33.797-75.486,75.486-75.486S462,344.353,462,386.042z
	 M432.905,374.524h-32.677v-32.677h-25.232v32.677H342.32v25.233h32.676v32.674h25.232v-32.674h32.677V374.524z"/>
</svg>
