<?xml version="1.0" encoding="utf-8"?>
<!-- Generator: Adobe Illustrator 16.0.0, SVG Export Plug-In . SVG Version: 6.00 Build 0)  -->
<!DOCTYPE svg PUBLIC "-//W3C//DTD SVG 1.1//EN" "http://www.w3.org/Graphics/SVG/1.1/DTD/svg11.dtd">
<svg version="1.1" id="Layer_1" xmlns="http://www.w3.org/2000/svg" xmlns:xlink="http://www.w3.org/1999/xlink" x="0px" y="0px"
	 width="512px" height="512px" viewBox="0 0 512 512" enable-background="new 0 0 512 512" xml:space="preserve">
<path id="newspaper-7-icon" fill="#15B880" d="M376.143,181.113l10.317,7.394l-167.596,90.892l-10.315-7.395L376.143,181.113z
	 M169.363,243.923l10.31,7.391l45.304-24.57l-10.313-7.39L169.363,243.923z M188.954,257.964l10.313,7.39l45.302-24.568
	l-10.312-7.388L188.954,257.964z M186.454,197.271l7.262-3.937l-22.762-16.309l-6.555,3.556l13.95,9.997l-23.535-4.8l-8.019,4.351
	l22.762,16.307l6.555-3.556l-15.565-11.154L186.454,197.271z M253.482,153.781l-0.521,0.098l3.206,4.137l0.312-0.052
	c2.208-0.357,6.154-1.591,9.589-3.452c8.699-4.722,7.93-9.157,4.632-11.523c-3.192-2.287-7.786-2.542-14.455-0.813
	c-4.92,1.25-6.757,1.52-7.948,0.666c-1.145-0.821-0.397-2.156,1.912-3.41c2.031-1.101,4.325-1.912,6.82-2.401l0.492-0.097
	l-2.96-4.15l-0.348,0.072c-2.912,0.626-5.778,1.696-8.522,3.184c-6.621,3.592-8.274,8.006-4.111,10.988
	c3.066,2.199,8.061,2.376,14.821,0.531c4.346-1.158,6.221-1.252,7.428-0.388c1.371,0.98,0.63,2.369-2.022,3.81
	C259.562,152.198,256.448,153.244,253.482,153.781z M222.631,158.701l18.624,8.853l7.468-4.052l-15.258-20.375l-7.221,3.916
	l11.752,13.109l-19.044-9.156l-7.359,3.993l11.736,13.486l-19.364-9.351l-7.56,4.099l29.652,12.57l7.558-4.097L222.631,158.701z
	 M150.064,230.094l10.318,7.396l167.593-90.892l-10.314-7.393L150.064,230.094z M278.604,184.677l-51.549,27.957l29.906,21.432
	l51.551-27.958L278.604,184.677z M201.079,183.499l-4.766-3.414l10.441-5.664l-4.611-3.305l-10.439,5.665l-4.102-2.94l11.079-6.006
	l-4.646-3.325l-18.178,9.857l22.759,16.309l18.766-10.176l-4.644-3.327L201.079,183.499z M217.199,327.631L462,194.868
	L294.934,75.146L50.13,207.906L217.199,327.631z M418.025,188.207L212.704,299.561L85.343,208.29L290.664,96.938L418.025,188.207
	 M347.268,160.422l-10.312-7.391l-45.298,24.567l10.312,7.389L347.268,160.422z M366.861,174.464l-10.312-7.392l-45.294,24.565
	l10.31,7.391L366.861,174.464z M437.491,232.467L212.573,354.626L69.787,252.242L50,262.975l167.069,119.725L461.87,249.937
	L437.491,232.467z M437.56,286.621l-224.916,122.16L69.858,306.396L50.07,317.129l167.066,119.727l244.804-132.763L437.56,286.621z"
	/>
</svg>
