<?xml version="1.0" encoding="utf-8"?>
<!-- Generator: Adobe Illustrator 16.0.0, SVG Export Plug-In . SVG Version: 6.00 Build 0)  -->
<!DOCTYPE svg PUBLIC "-//W3C//DTD SVG 1.1//EN" "http://www.w3.org/Graphics/SVG/1.1/DTD/svg11.dtd">
<svg version="1.1" id="Layer_1" xmlns="http://www.w3.org/2000/svg" xmlns:xlink="http://www.w3.org/1999/xlink" x="0px" y="0px"
	 width="512px" height="512px" viewBox="0 0 512 512" enable-background="new 0 0 512 512" xml:space="preserve">
<path id="book-19-icon" fill="#15B880" d="M256,141.173c-50.447-31.404-127.301-44.056-206-46.457V378.05
	c67.583,2.062,133.805,11.685,183.111,34.248c14.539,6.654,31.254,6.646,45.793-0.008c49.305-22.559,115.521-32.178,183.096-34.24
	V94.716C383.301,97.117,306.445,109.769,256,141.173z M90,137.012c47.503,3.985,105.513,13.64,146,38.827v194.238
	c-39.319-15.603-88.158-25.64-146-29.987V137.012z M422,340.09c-57.842,4.348-106.682,14.386-146,29.987V175.839
	c40.486-25.188,98.496-34.842,146-38.827V340.09z M218.666,182.694v21.076c-31.635-10.744-63.682-17.659-101.666-21.889V161.76
	C154.872,165.848,187.093,172.477,218.666,182.694z M117,325.882c37.984,4.229,70.031,11.146,101.666,21.89v-21.076
	c-31.573-10.219-63.794-16.848-101.666-20.934V325.882z M117,289.382c37.984,4.229,70.031,11.146,101.666,21.89v-21.076
	c-31.573-10.219-63.794-16.848-101.666-20.934V289.382z M117,217.882c37.984,4.229,70.031,11.145,101.666,21.889v-21.076
	c-31.573-10.218-63.794-16.847-101.666-20.934V217.882z M117,253.382c37.984,4.229,70.031,11.146,101.666,21.89v-21.077
	c-31.573-10.218-63.794-16.847-101.666-20.934V253.382z M395,161.761v20.121c-37.984,4.229-70.033,11.145-101.666,21.889v-21.076
	C324.906,172.477,357.127,165.848,395,161.761z M395,305.761c-37.873,4.087-70.094,10.716-101.666,20.935v21.075
	c31.633-10.743,63.682-17.658,101.666-21.889V305.761z M395,269.261c-37.873,4.087-70.094,10.716-101.666,20.935v21.075
	c31.633-10.743,63.682-17.659,101.666-21.889V269.261z M395,197.761c-37.873,4.087-70.094,10.716-101.666,20.934v21.076
	c31.633-10.744,63.682-17.659,101.666-21.889V197.761z M395,233.261c-37.873,4.087-70.094,10.716-101.666,20.934v21.077
	c31.633-10.744,63.682-17.66,101.666-21.89V233.261z"/>
</svg>
