<?xml version="1.0" encoding="utf-8"?>
<!-- Generator: Adobe Illustrator 16.0.0, SVG Export Plug-In . SVG Version: 6.00 Build 0)  -->
<!DOCTYPE svg PUBLIC "-//W3C//DTD SVG 1.1//EN" "http://www.w3.org/Graphics/SVG/1.1/DTD/svg11.dtd">
<svg version="1.1" id="Layer_1" xmlns="http://www.w3.org/2000/svg" xmlns:xlink="http://www.w3.org/1999/xlink" x="0px" y="0px"
	 width="512px" height="512px" viewBox="0 0 512 512" enable-background="new 0 0 512 512" xml:space="preserve">
<path id="book-20-icon" fill="#15B880" d="M85.273,291.389c-1.096,4.594,5.002,7.473,7.026,2.59
	c2.465-5.951,6.417-31.23,9.874-56.682c1.847-13.61,20.062-11.939,20.018,2.127c-0.068,21.891-0.058,40.116-0.006,72.55
	c0.042,27.65-12.692,28.197-21.976,59.222c-1.591,5.314-2.952,11.123-4.073,16.79L50,371.887
	c16.08-31.452,8.335-56.297,6.726-76.641c-2.197-27.803,5.193-30.498,39.484-63.902C94.144,246.017,89.859,272.145,85.273,291.389z
	 M426.727,291.389c1.097,4.594-5.002,7.473-7.025,2.59c-2.465-5.951-6.417-31.23-9.874-56.682
	c-1.847-13.61-20.062-11.939-20.019,2.127c0.068,21.891,0.059,40.116,0.006,72.55c-0.041,27.65,12.692,28.197,21.977,59.222
	c1.591,5.314,2.952,11.123,4.073,16.79L462,371.887c-16.08-31.452-8.335-56.297-6.726-76.641
	c2.196-27.803-5.193-30.498-39.484-63.902C417.856,246.017,422.141,272.145,426.727,291.389z M374.82,307.983
	c-41.152,3.438-76.073,10.805-104.381,22.035V184.707c30.289-18.844,73.688-26.066,109.226-29.049v67.87
	c6.849-9.71,19.433-13.076,29.926-8.719v-90.794c-58.876,1.797-116.374,11.262-154.113,34.756
	c-37.74-23.494-95.237-32.959-154.114-34.756v91.258c10.059-4.761,22.555-2.155,29.925,6.868v-66.483
	c35.539,2.982,78.937,10.205,109.227,29.049V330.02c-28.067-11.137-62.635-18.474-103.335-21.949
	c0.011,6.948,0.318,17.756-4.451,29.657c39.283,3.226,76.413,10.514,105.613,23.873c10.867,4.974,23.394,4.979,34.261,0.007
	c29.451-13.479,66.975-20.778,106.639-23.962C374.562,325.917,374.811,315.357,374.82,307.983z M351.583,243.73
	c-21.455,4.003-41.414,9.21-61.192,15.929v-21.076c19.73-6.386,39.731-11.358,61.192-15.194V243.73z M351.583,187.389
	c-21.461,3.836-41.462,8.809-61.192,15.194v21.076c19.778-6.719,39.737-11.926,61.192-15.929V187.389z M159.372,223.389
	c21.461,3.836,41.462,8.809,61.193,15.194v21.076c-19.779-6.719-39.738-11.926-61.193-15.929V223.389L159.372,223.389z
	 M159.372,207.73c21.455,4.003,41.414,9.21,61.193,15.929v-21.076c-19.731-6.386-39.732-11.358-61.193-15.194V207.73L159.372,207.73
	z M159.372,280.23c21.455,4.002,41.414,9.209,61.193,15.929v-21.076c-19.731-6.386-39.732-11.358-61.193-15.194V280.23
	L159.372,280.23z"/>
</svg>
