<?xml version="1.0" encoding="utf-8"?>
<!-- Generator: Adobe Illustrator 16.0.0, SVG Export Plug-In . SVG Version: 6.00 Build 0)  -->
<!DOCTYPE svg PUBLIC "-//W3C//DTD SVG 1.1//EN" "http://www.w3.org/Graphics/SVG/1.1/DTD/svg11.dtd">
<svg version="1.1" id="Layer_1" xmlns="http://www.w3.org/2000/svg" xmlns:xlink="http://www.w3.org/1999/xlink" x="0px" y="0px"
	 width="512px" height="512px" viewBox="0 0 512 512" enable-background="new 0 0 512 512" xml:space="preserve">
<path id="currency-dollar-2-icon_1_" fill="#15B880" d="M297.689,462h-84.814v-36.044c-38.57-5.956-64.739-18.182-89.538-31.849
	l25.988-90.512c27.027,10.543,76.586,31.183,109.418,24.017c16.248-3.546,14.467-9.651-0.668-16.177l-0.207-0.09
	c-14.618-6.561-55.453-14.494-87.062-36.873c-28.391-20.101-42.787-47.088-42.787-80.214c0-37.926,26.651-84.385,84.856-101.91V50
	h84.814v37.051c34.093,3.842,59.062,12.229,77.988,18.147c-5.57,24.318-3.229,14.074-21.531,94.315
	c-30.006-10.217-57.998-20.93-85.26-20.93c-12.651,0-33.539,3.697-14.428,13.455c50.918,22.973,134.203,45.658,134.203,125.7
	c0.074,54.231-37.596,91.528-90.973,103.402V462L297.689,462z M242.761,432.114h25.046V395.68
	c51.006-7.172,91.043-26.364,90.971-77.921c0-58.307-65.961-75.575-116.92-98.621l-0.525-0.249
	c-17.84-8.92-27.271-24.822-24.029-40.513c8.641-41.816,74.251-31.006,115.07-17.787c2.406-10.558,5.543-24.307,7.955-34.877
	c-32.773-8.958-53.686-9.769-72.521-11.062V79.886h-25.044v36.055c-62.791,13.707-84.855,46.861-84.855,78.319
	c0,65.973,82.865,76.711,112.1,89.775c29.548,12.777,31.007,32.112,30.263,39.839c-1.677,17.399-18.338,35.063-56.273,35.063
	c-25.178,0.003-52.762-7.9-74.928-15.802l-10.29,35.84c36.254,16.535,66.378,18.521,83.985,20.027v33.111H242.761z"/>
</svg>
